<svg width="84" height="21" viewBox="0 0 84 21" fill="none" xmlns="http://www.w3.org/2000/svg">
<path fill-rule="evenodd" clip-rule="evenodd" d="M82.479 0H64.583C63.727 0 63 0.677 63 1.511V19.488C63 20.323 63.477 21 64.333 21H82.229C83.086 21 84 20.323 84 19.488V1.511C84 0.677 83.336 0 82.479 0Z" fill="white"/>
<path fill-rule="evenodd" clip-rule="evenodd" d="M82.479 0H64.583C63.727 0 63 0.677 63 1.511V19.488C63 20.323 63.477 21 64.333 21H82.229C83.086 21 84 20.323 84 19.488V1.511C84 0.677 83.336 0 82.479 0ZM71 8H73.827V9.441H73.858C74.289 8.664 75.562 7.875 77.136 7.875C80.157 7.875 81 9.479 81 12.45V18H78V12.997C78 11.667 77.469 10.5 76.227 10.5C74.719 10.5 74 11.521 74 13.197V18H71V8ZM66 18H69V8H66V18ZM69.375 4.5C69.3751 4.74616 69.3266 4.98993 69.2325 5.21738C69.1384 5.44483 69.0003 5.65151 68.8263 5.82562C68.6523 5.99973 68.4457 6.13786 68.2183 6.23212C67.9909 6.32638 67.7472 6.37493 67.501 6.375C67.2548 6.37507 67.0111 6.32665 66.7836 6.2325C66.5562 6.13836 66.3495 6.00034 66.1754 5.82633C65.8238 5.47488 65.6261 4.99815 65.626 4.501C65.6259 4.00385 65.8232 3.52701 66.1747 3.17538C66.5261 2.82375 67.0029 2.62613 67.5 2.626C67.9971 2.62587 68.474 2.82323 68.8256 3.17467C69.1772 3.52612 69.3749 4.00285 69.375 4.5Z" fill="black"/>
<path d="M60.001 18H57.201V16.809H57.171C56.548 17.531 55.466 18.125 53.632 18.125C51.132 18.125 48.979 16.244 48.979 13.011C48.979 9.931 51.101 7.875 53.726 7.875C55.351 7.875 56.36 8.453 56.971 9.191H57.001V3H60.001V18ZM54.48 10.125C52.765 10.125 51.801 11.348 51.801 12.974C51.801 14.601 52.765 15.875 54.48 15.875C56.197 15.875 57.201 14.634 57.201 12.974C57.201 11.268 56.197 10.125 54.48 10.125ZM47.662 16.389C46.954 17.306 45.496 18.125 43.142 18.125C40.002 18.125 38.002 16.045 38.002 12.778C38.002 9.875 39.813 7.875 43.23 7.875C46.181 7.875 48.001 9.813 48.001 13.222C48.001 13.562 47.946 13.9 47.946 13.9H40.832L40.849 14.209C41.046 15.071 41.697 16.125 43.191 16.125C44.495 16.125 45.389 15.424 45.793 14.875L47.663 16.389H47.662ZM45.114 11.999C45.134 10.945 44.36 9.875 43.14 9.875C41.688 9.875 40.913 11.009 40.832 12H45.114V11.999Z" fill="black"/>
<path d="M38 7.99872H34.5L31 11.9987V2.99872H28V17.9987H31V12.9987L34.699 17.9987H38.241L34 12.5317L38 7.99872ZM16 7.99872H18.827V9.43972H18.858C19.289 8.66272 20.562 7.87372 22.136 7.87372C25.157 7.87372 26 9.79072 26 12.4487V17.9987H23V12.9957C23 11.5237 22.469 10.4987 21.227 10.4987C19.719 10.4987 19 11.6927 19 13.1957V17.9987H16V7.99872ZM11 17.9987H14V7.99872H11V17.9987ZM12.501 6.29872C12.7409 6.30437 12.9795 6.26201 13.2027 6.17412C13.426 6.08623 13.6295 5.95458 13.8011 5.78692C13.9728 5.61926 14.1092 5.41898 14.2023 5.19784C14.2954 4.9767 14.3434 4.73917 14.3434 4.49922C14.3434 4.25927 14.2954 4.02174 14.2023 3.8006C14.1092 3.57946 13.9728 3.37917 13.8011 3.21152C13.6295 3.04386 13.426 2.91221 13.2027 2.82432C12.9795 2.73643 12.7409 2.69406 12.501 2.69972C12.0311 2.7108 11.5841 2.90525 11.2557 3.24151C10.9273 3.57778 10.7434 4.02918 10.7434 4.49922C10.7434 4.96926 10.9273 5.42066 11.2557 5.75692C11.5841 6.09319 12.0311 6.28764 12.501 6.29872ZM3 2.99872H0V17.9987H9V14.9987H3V2.99872Z" fill="black"/>
</svg>
