<svg width="131" height="44" viewBox="0 0 131 44" fill="none" xmlns="http://www.w3.org/2000/svg">
<path fill-rule="evenodd" clip-rule="evenodd" d="M45.146 2.4566C45.8163 2.62295 46.4956 2.21638 46.6628 1.54849C46.8298 0.880602 46.4217 0.203712 45.7512 0.0373606C45.0812 -0.129301 44.4019 0.277267 44.2346 0.945467C44.0677 1.61336 44.4757 2.28994 45.146 2.4566Z" fill="#BC1088"/>
<path fill-rule="evenodd" clip-rule="evenodd" d="M25.8563 3.65501C24.7419 4.80489 24.774 6.63817 25.9279 7.74832C27.0819 8.85878 28.9217 8.82681 30.0358 7.67694C31.1502 6.52737 31.1182 4.69378 29.9642 3.58363C28.8102 2.47348 26.9704 2.50545 25.8563 3.65501Z" fill="#BC1088"/>
<path fill-rule="evenodd" clip-rule="evenodd" d="M15.0192 9.63751C13.5886 11.1139 13.6298 13.4673 15.1114 14.8931C16.5927 16.3186 18.9549 16.2773 20.3854 14.8012C21.8163 13.3252 21.7748 10.9714 20.2935 9.54564C18.8119 8.12017 16.4501 8.16145 15.0192 9.63751Z" fill="#BC1088"/>
<path fill-rule="evenodd" clip-rule="evenodd" d="M35.9863 2.84587C35.9863 3.82598 36.7843 4.62111 37.7682 4.62111C38.7518 4.62111 39.5498 3.82598 39.5498 2.84587C39.5498 1.86545 38.7518 1.07031 37.7682 1.07031C36.7843 1.07031 35.9863 1.86545 35.9863 2.84587Z" fill="#BC1088"/>
<path fill-rule="evenodd" clip-rule="evenodd" d="M6.50009 19.1006C4.72195 20.9354 4.77303 23.8609 6.6144 25.6327C8.45577 27.4048 11.3919 27.3536 13.1701 25.5188C14.9482 23.6839 14.8968 20.7585 13.0555 18.9867C11.2141 17.2149 8.27824 17.2658 6.50009 19.1006Z" fill="#BC1088"/>
<path fill-rule="evenodd" clip-rule="evenodd" d="M1.66487 33.2189C-0.610999 35.5671 -0.54528 39.3112 1.81125 41.5787C4.16779 43.8465 7.92528 43.781 10.2008 41.4328C12.4764 39.0846 12.411 35.3405 10.0544 33.073C7.69791 30.8052 3.94042 30.8707 1.66487 33.2189Z" fill="#BC1088"/>
<path fill-rule="evenodd" clip-rule="evenodd" d="M44.2182 26.7223C44.2182 20.7339 39.9615 18.4882 35.9551 18.4882C31.2978 18.4882 27.041 21.5321 27.041 26.4228V36.2037C27.041 41.3435 30.6967 43.9468 35.7047 43.9468C39.5108 43.9468 42.2152 42.6908 44.0681 41.3435L42.716 38.4991C40.6626 39.9963 38.2587 40.8944 35.9551 40.8944C32.9003 40.8944 30.3961 38.9482 30.3961 35.2552V32.0617H44.2182V26.7223ZM40.8636 26.021V29.1646H30.3968V26.4201C30.3968 23.0267 33.4517 21.3799 36.006 21.3799C37.6085 21.3799 40.8636 22.5776 40.8636 26.021ZM63.8975 21.8816C62.5451 19.9853 60.1914 18.4882 56.5856 18.4882C54.2318 18.4882 52.4291 18.9872 50.8266 20.2848C49.3742 21.4325 48.5728 23.2788 48.6731 25.2251C48.7731 28.6682 51.177 30.5145 54.3321 31.6126C56.3853 32.3611 59.1399 32.9102 60.2415 34.8061C60.7423 35.7046 60.9928 36.6528 60.7925 37.6009C60.5421 38.8482 59.6404 39.7964 58.4886 40.3454C57.5371 40.7945 56.5856 40.9441 55.2335 40.9441C53.3806 40.9441 51.0269 39.8963 49.5244 38.2496L47.7216 40.7445C49.1238 42.3913 51.728 43.8968 55.3836 43.8968C58.1382 43.8968 59.9911 43.1898 61.4434 42.1421C64.7487 39.8464 64.949 34.8061 62.4953 32.2612C60.5922 30.315 58.3385 29.5667 55.7343 28.7681C49.975 27.0214 50.8764 21.233 56.836 21.233C58.739 21.233 60.9426 22.4806 61.9443 23.8778L63.8975 21.8816ZM78.8739 18.9373H72.9645V11.9011L69.7094 13.2984V18.9373H66.4042V21.5821H69.7094L69.7596 38.7486C69.7596 42.9903 71.8131 43.8968 73.6656 43.8968C75.7693 43.8968 77.1715 42.9903 77.8224 42.3416L77.0712 39.7964C75.6188 41.2436 72.9645 41.9422 72.9645 39.0481V21.5821H78.3734L78.8739 18.9373ZM86.7373 11.6515C86.7373 10.2543 85.5354 9.05664 84.0329 9.05664C82.5805 9.05664 81.3786 10.2543 81.3786 11.6515C81.3786 13.0987 82.5805 14.2464 84.0329 14.2464C85.5354 14.2464 86.7373 13.0987 86.7373 11.6515ZM82.3798 43.5387H85.6349V18.9866H82.3798V43.5387ZM108.919 25.971C108.919 21.1303 106.214 18.5354 101.807 18.5354C98.7522 18.5354 96.148 19.5835 94.3951 21.1803C93.8445 19.7831 93.2433 19.284 92.4921 18.9345L90.2386 20.2821C91.04 21.1303 91.5907 22.2281 91.5907 23.5257V43.5366H94.8461V24.2243C96.3985 22.4779 99.804 21.3799 101.056 21.3799C104.011 21.3799 105.563 23.2761 105.563 26.4201V43.5366H108.919V25.971ZM130.956 42.3913C130.155 41.5431 129.604 40.4453 129.604 39.1977V26.4228C129.604 21.4825 126.649 18.4882 122.042 18.4882C118.436 18.4882 115.732 19.8857 114.38 21.7817L116.032 24.0274C117.484 22.0812 119.839 21.3326 121.741 21.3326C123.995 21.3326 126.299 22.6802 126.299 26.1233L126.349 29.1673H120.94C115.481 29.1673 112.226 33.6088 113.078 38.2496C113.829 42.4413 116.984 43.9468 120.54 43.9468C122.593 43.9468 125.197 43.2398 126.799 41.7926C127.801 43.3397 128.552 43.6973 129.203 43.9968L130.956 42.3913ZM126.298 39.0483C124.345 40.6451 121.64 41.5932 119.337 40.8946C114.429 39.4474 115.23 32.1118 120.839 32.0618H126.298V39.0483Z" fill="#FEFEFE"/>
</svg>
